<svg width="777" height="460" viewBox="0 0 777 460" fill="none" xmlns="http://www.w3.org/2000/svg">
<mask id="path-1-inside-1_216_31" fill="white">
<path d="M158.125 0H301.875V143.75H158.125V0Z"/>
</mask>
<path d="M158.125 0H301.875V143.75H158.125V0Z" stroke="#F2F2F2" stroke-opacity="0.7" stroke-width="40" mask="url(#path-1-inside-1_216_31)"/>
<mask id="path-2-inside-2_216_31" fill="white">
<path d="M0 0H143.75V301.875H0V0Z"/>
</mask>
<path d="M0 0H143.75V301.875H0V0Z" stroke="#F2F2F2" stroke-opacity="0.7" stroke-width="40" mask="url(#path-2-inside-2_216_31)"/>
<mask id="path-3-inside-3_216_31" fill="white">
<path d="M474.375 158.125H618.125V301.875H474.375V158.125Z"/>
</mask>
<path d="M474.375 158.125H618.125V301.875H474.375V158.125Z" stroke="#F2F2F2" stroke-opacity="0.7" stroke-width="40" mask="url(#path-3-inside-3_216_31)"/>
<mask id="path-4-inside-4_216_31" fill="white">
<path d="M474.375 0H618.125V143.75H474.375V0Z"/>
</mask>
<path d="M474.375 0H618.125V143.75H474.375V0Z" stroke="#F2F2F2" stroke-opacity="0.7" stroke-width="40" mask="url(#path-4-inside-4_216_31)"/>
<mask id="path-5-inside-5_216_31" fill="white">
<path d="M316.25 0H460V301.875H316.25V0Z"/>
</mask>
<path d="M316.25 0H460V301.875H316.25V0Z" stroke="#F2F2F2" stroke-opacity="0.7" stroke-width="40" mask="url(#path-5-inside-5_216_31)"/>
<mask id="path-6-inside-6_216_31" fill="white">
<path d="M380.938 316.25L380.937 460L-6.28351e-06 460L0 316.25L380.938 316.25Z"/>
</mask>
<path d="M380.938 316.25L380.937 460L-6.28351e-06 460L0 316.25L380.938 316.25Z" stroke="#F2F2F2" stroke-opacity="0.7" stroke-width="40" mask="url(#path-6-inside-6_216_31)"/>
<mask id="path-7-inside-7_216_31" fill="white">
<path d="M776.25 316.25L776.25 460L395.312 460L395.312 316.25L776.25 316.25Z"/>
</mask>
<path d="M776.25 316.25L776.25 460L395.312 460L395.312 316.25L776.25 316.25Z" stroke="#F2F2F2" stroke-opacity="0.7" stroke-width="40" mask="url(#path-7-inside-7_216_31)"/>
<mask id="path-8-inside-8_216_31" fill="white">
<path d="M158.125 158.125H301.875V301.875H158.125V158.125Z"/>
</mask>
<path d="M158.125 158.125H301.875V301.875H158.125V158.125Z" stroke="#F2F2F2" stroke-opacity="0.7" stroke-width="40" mask="url(#path-8-inside-8_216_31)"/>
<mask id="path-9-inside-9_216_31" fill="white">
<path d="M632.5 0H776.25V301.875H632.5V0Z"/>
</mask>
<path d="M632.5 0H776.25V301.875H632.5V0Z" stroke="#F2F2F2" stroke-opacity="0.7" stroke-width="40" mask="url(#path-9-inside-9_216_31)"/>
</svg>
