<svg width="777" height="460" viewBox="0 0 777 460" fill="none" xmlns="http://www.w3.org/2000/svg">
<path fill-rule="evenodd" clip-rule="evenodd" d="M316.25 0V301.875H460V0H316.25ZM336.25 20H440V281.875H336.25V20ZM632.5 0V301.875H776.25V0H632.5ZM652.5 20H756.25V281.875H652.5V20ZM0 301.875H143.75V0H0V301.875ZM20 281.875V20H123.75V281.875H20ZM158.125 301.875H301.875V158.125H158.125V301.875ZM178.125 178.125V281.875H281.875V178.125H178.125ZM301.875 143.75V0H158.125V143.75H301.875ZM281.875 123.75H178.125V20H281.875V123.75ZM6.10352e-05 316.25L5.47516e-05 460H380.938V316.25L6.10352e-05 316.25ZM360.938 336.25L20.0001 336.25L20.0001 440H360.938V336.25ZM395.312 460H776.25V316.25L395.312 316.25V460ZM415.312 336.25V440H756.25V336.25L415.312 336.25ZM617.75 301.75V158H474V301.75H617.75ZM597.75 281.75H494V178H597.75V281.75ZM618.125 143.75V0H474.375V143.75H618.125ZM598.125 123.75H494.375V20H598.125V123.75Z" fill="#000000" fill-opacity="0.05"/>
</svg>
